<svg xmlns="http://www.w3.org/2000/svg" xmlns:xlink="http://www.w3.org/1999/xlink" width="500" zoomAndPan="magnify" viewBox="0 0 375 374.999991" height="500" preserveAspectRatio="xMidYMid meet" version="1.0"><defs><g/><clipPath id="385c95b15e"><path d="M 110.515625 136.59375 L 161.984375 136.59375 L 161.984375 180.777344 L 110.515625 180.777344 Z M 110.515625 136.59375 " clip-rule="nonzero"/></clipPath><clipPath id="9b092771a6"><path d="M 136 93.027344 L 212.980469 93.027344 L 212.980469 180.777344 L 136 180.777344 Z M 136 93.027344 " clip-rule="nonzero"/></clipPath><clipPath id="75ea88fdaa"><path d="M 187.246094 93.027344 L 264.164062 93.027344 L 264.164062 180.777344 L 187.246094 180.777344 Z M 187.246094 93.027344 " clip-rule="nonzero"/></clipPath></defs><g clip-path="url(#385c95b15e)"><path fill="#202832" d="M 148.925781 136.640625 L 123.335938 136.640625 L 110.515625 158.921875 L 123.335938 181.15625 L 148.925781 181.15625 L 161.746094 158.921875 L 148.925781 136.640625 " fill-opacity="1" fill-rule="nonzero"/></g><g clip-path="url(#9b092771a6)"><path fill="#54606c" d="M 204.875 144.867188 L 204.878906 144.863281 L 204.015625 143.363281 L 200.160156 136.640625 L 200.140625 136.640625 L 182.90625 106.707031 L 182.902344 106.710938 L 174.519531 92.171875 L 148.925781 92.171875 L 136.105469 114.40625 L 144.734375 129.371094 L 165.855469 166.074219 L 174.519531 181.15625 L 200.160156 181.15625 L 212.929688 158.921875 L 204.875 144.867188 " fill-opacity="1" fill-rule="nonzero"/></g><g clip-path="url(#75ea88fdaa)"><path fill="#57ae51" d="M 255.457031 143.785156 L 255.492188 143.765625 L 233.566406 105.605469 L 233.515625 105.640625 L 225.753906 92.171875 L 200.160156 92.171875 L 187.339844 114.40625 L 200.160156 136.640625 L 200.167969 136.640625 L 212.96875 158.855469 L 212.929688 158.921875 L 225.753906 181.15625 L 251.34375 181.15625 L 264.164062 158.921875 L 255.457031 143.785156 " fill-opacity="1" fill-rule="nonzero"/></g><g fill="#000000" fill-opacity="1"><g transform="translate(84.867186, 237.746996)"><g><path d="M 27.453125 -34.75 L 26.5 -27.703125 L 18.296875 -27.703125 L 18.296875 0 L 9.046875 0 L 9.046875 -27.703125 L 0.34375 -27.703125 L 0.34375 -34.75 Z M 27.453125 -34.75 "/></g></g></g><g fill="#000000" fill-opacity="1"><g transform="translate(112.212956, 237.746996)"><g><path d="M 14.59375 -34.75 C 19.257812 -34.75 22.882812 -33.773438 25.46875 -31.828125 C 28.050781 -29.878906 29.34375 -27.019531 29.34375 -23.25 C 29.34375 -19.3125 28.09375 -16.316406 25.59375 -14.265625 C 23.09375 -12.222656 19.726562 -11.203125 15.5 -11.203125 L 11.953125 -11.203125 L 11.953125 0 L 2.703125 0 L 2.703125 -34.75 Z M 14.65625 -17.796875 C 16.382812 -17.796875 17.691406 -18.226562 18.578125 -19.09375 C 19.460938 -19.96875 19.90625 -21.335938 19.90625 -23.203125 C 19.90625 -26.566406 18.085938 -28.25 14.453125 -28.25 L 11.953125 -28.25 L 11.953125 -17.796875 Z M 14.65625 -17.796875 "/></g></g></g><g fill="#000000" fill-opacity="1"><g transform="translate(142.45827, 237.746996)"><g><path d="M 29.703125 -34.75 L 20.5 0 L 8.703125 0 L -0.953125 -34.75 L 8.796875 -34.75 L 14.75 -6.75 L 20.25 -34.75 Z M 29.703125 -34.75 "/></g></g></g><g fill="#000000" fill-opacity="1"><g transform="translate(171.203824, 237.746996)"><g><path d="M 30.15625 0 L 18.5 0 L 9.703125 -26.15625 L 9.84375 -25.09375 C 10.175781 -22.800781 10.4375 -20.644531 10.625 -18.625 C 10.8125 -16.601562 10.90625 -14.3125 10.90625 -11.75 L 10.90625 0 L 2.703125 0 L 2.703125 -34.75 L 14.09375 -34.75 L 23.203125 -8.5 C 22.796875 -11 22.484375 -13.25 22.265625 -15.25 C 22.054688 -17.25 21.953125 -19.550781 21.953125 -22.15625 L 21.953125 -34.75 L 30.15625 -34.75 Z M 30.15625 0 "/></g></g></g><g fill="#000000" fill-opacity="1"><g transform="translate(204.048743, 237.746996)"><g><path d="M 25.84375 0 L 18.09375 0 L 17.75 -3.15625 C 15.882812 -0.445312 13.234375 0.90625 9.796875 0.90625 C 7.328125 0.90625 5.46875 0.164062 4.21875 -1.3125 C 2.96875 -2.800781 2.34375 -4.863281 2.34375 -7.5 L 2.34375 -26.65625 L 11.25 -26.65625 L 11.25 -8.65625 C 11.25 -7.519531 11.421875 -6.722656 11.765625 -6.265625 C 12.117188 -5.816406 12.644531 -5.59375 13.34375 -5.59375 C 13.976562 -5.59375 14.601562 -5.816406 15.21875 -6.265625 C 15.84375 -6.722656 16.421875 -7.382812 16.953125 -8.25 L 16.953125 -26.65625 L 25.84375 -26.65625 Z M 25.84375 0 "/></g></g></g><g fill="#000000" fill-opacity="1"><g transform="translate(232.494336, 237.746996)"><g><path d="M 18.59375 -27.546875 C 21.757812 -27.546875 24.191406 -26.296875 25.890625 -23.796875 C 27.597656 -21.296875 28.453125 -17.796875 28.453125 -13.296875 C 28.453125 -10.566406 28.023438 -8.125 27.171875 -5.96875 C 26.328125 -3.820312 25.101562 -2.140625 23.5 -0.921875 C 21.894531 0.296875 19.992188 0.90625 17.796875 0.90625 C 16.328125 0.90625 15 0.613281 13.8125 0.03125 C 12.632812 -0.550781 11.644531 -1.378906 10.84375 -2.453125 L 10.5 0 L 2.59375 0 L 2.59375 -37.15625 L 11.5 -38.046875 L 11.5 -24.046875 C 12.269531 -25.117188 13.285156 -25.96875 14.546875 -26.59375 C 15.816406 -27.226562 17.164062 -27.546875 18.59375 -27.546875 Z M 15.15625 -5.5 C 16.445312 -5.5 17.453125 -6.097656 18.171875 -7.296875 C 18.890625 -8.492188 19.25 -10.492188 19.25 -13.296875 C 19.25 -16.296875 18.921875 -18.34375 18.265625 -19.4375 C 17.617188 -20.539062 16.695312 -21.09375 15.5 -21.09375 C 13.9375 -21.09375 12.601562 -20.160156 11.5 -18.296875 L 11.5 -7.75 C 12.394531 -6.25 13.613281 -5.5 15.15625 -5.5 Z M 15.15625 -5.5 "/></g></g></g><g fill="#000000" fill-opacity="1"><g transform="translate(262.389712, 237.746996)"><g><path d="M 26.75 -13.75 C 26.75 -13.550781 26.695312 -12.550781 26.59375 -10.75 L 10.296875 -10.75 C 10.535156 -8.71875 11.113281 -7.328125 12.03125 -6.578125 C 12.945312 -5.828125 14.253906 -5.453125 15.953125 -5.453125 C 16.953125 -5.453125 17.941406 -5.640625 18.921875 -6.015625 C 19.910156 -6.398438 20.988281 -6.992188 22.15625 -7.796875 L 25.75 -2.90625 C 24.351562 -1.738281 22.753906 -0.8125 20.953125 -0.125 C 19.148438 0.5625 17.195312 0.90625 15.09375 0.90625 C 10.5625 0.90625 7.117188 -0.367188 4.765625 -2.921875 C 2.421875 -5.472656 1.25 -8.898438 1.25 -13.203125 C 1.25 -15.898438 1.738281 -18.332031 2.71875 -20.5 C 3.707031 -22.664062 5.164062 -24.378906 7.09375 -25.640625 C 9.03125 -26.910156 11.363281 -27.546875 14.09375 -27.546875 C 18 -27.546875 21.082031 -26.335938 23.34375 -23.921875 C 25.613281 -21.503906 26.75 -18.113281 26.75 -13.75 Z M 18 -16.25 C 17.96875 -18.019531 17.664062 -19.382812 17.09375 -20.34375 C 16.53125 -21.3125 15.582031 -21.796875 14.25 -21.796875 C 13.019531 -21.796875 12.085938 -21.363281 11.453125 -20.5 C 10.816406 -19.632812 10.414062 -18.117188 10.25 -15.953125 L 18 -15.953125 Z M 18 -16.25 "/></g></g></g><g fill="#000000" fill-opacity="1"><g transform="translate(58.898438, 274.044385)"><g><path d="M 5.59375 -14.125 C 6.570312 -14.125 7.421875 -13.984375 8.140625 -13.703125 C 8.859375 -13.421875 9.53125 -12.992188 10.15625 -12.421875 L 8.859375 -10.921875 C 8.367188 -11.335938 7.875 -11.632812 7.375 -11.8125 C 6.875 -12 6.335938 -12.09375 5.765625 -12.09375 C 5.117188 -12.09375 4.597656 -11.945312 4.203125 -11.65625 C 3.816406 -11.375 3.625 -10.972656 3.625 -10.453125 C 3.625 -10.109375 3.695312 -9.820312 3.84375 -9.59375 C 4 -9.375 4.273438 -9.160156 4.671875 -8.953125 C 5.078125 -8.753906 5.671875 -8.535156 6.453125 -8.296875 C 7.816406 -7.867188 8.84375 -7.335938 9.53125 -6.703125 C 10.21875 -6.078125 10.5625 -5.15625 10.5625 -3.9375 C 10.5625 -3.113281 10.347656 -2.378906 9.921875 -1.734375 C 9.503906 -1.097656 8.898438 -0.597656 8.109375 -0.234375 C 7.328125 0.117188 6.394531 0.296875 5.3125 0.296875 C 4.257812 0.296875 3.316406 0.128906 2.484375 -0.203125 C 1.648438 -0.546875 0.9375 -1.007812 0.34375 -1.59375 L 1.703125 -3.125 C 2.234375 -2.664062 2.785156 -2.316406 3.359375 -2.078125 C 3.929688 -1.847656 4.566406 -1.734375 5.265625 -1.734375 C 6.023438 -1.734375 6.632812 -1.910156 7.09375 -2.265625 C 7.5625 -2.628906 7.796875 -3.140625 7.796875 -3.796875 C 7.796875 -4.203125 7.710938 -4.535156 7.546875 -4.796875 C 7.390625 -5.054688 7.117188 -5.285156 6.734375 -5.484375 C 6.347656 -5.691406 5.789062 -5.910156 5.0625 -6.140625 C 3.59375 -6.585938 2.53125 -7.128906 1.875 -7.765625 C 1.226562 -8.410156 0.90625 -9.253906 0.90625 -10.296875 C 0.90625 -11.054688 1.101562 -11.722656 1.5 -12.296875 C 1.894531 -12.867188 2.445312 -13.316406 3.15625 -13.640625 C 3.875 -13.960938 4.6875 -14.125 5.59375 -14.125 Z M 5.59375 -14.125 "/></g></g></g><g fill="#000000" fill-opacity="1"><g transform="translate(70.094021, 274.044385)"><g><path d="M 4.09375 -10.578125 L 4.09375 0 L 1.546875 0 L 1.546875 -10.578125 Z M 2.796875 -15.9375 C 3.273438 -15.9375 3.664062 -15.785156 3.96875 -15.484375 C 4.269531 -15.191406 4.421875 -14.820312 4.421875 -14.375 C 4.421875 -13.9375 4.269531 -13.570312 3.96875 -13.28125 C 3.664062 -12.988281 3.273438 -12.84375 2.796875 -12.84375 C 2.328125 -12.84375 1.941406 -12.988281 1.640625 -13.28125 C 1.347656 -13.570312 1.203125 -13.9375 1.203125 -14.375 C 1.203125 -14.820312 1.347656 -15.191406 1.640625 -15.484375 C 1.941406 -15.785156 2.328125 -15.9375 2.796875 -15.9375 Z M 2.796875 -15.9375 "/></g></g></g><g fill="#000000" fill-opacity="1"><g transform="translate(75.731792, 274.044385)"><g><path d="M 4.875 -10.875 C 6.300781 -10.875 7.554688 -10.457031 8.640625 -9.625 L 7.640625 -8.125 C 6.734375 -8.695312 5.847656 -8.984375 4.984375 -8.984375 C 4.472656 -8.984375 4.078125 -8.882812 3.796875 -8.6875 C 3.515625 -8.5 3.375 -8.242188 3.375 -7.921875 C 3.375 -7.679688 3.429688 -7.476562 3.546875 -7.3125 C 3.671875 -7.15625 3.890625 -7.003906 4.203125 -6.859375 C 4.523438 -6.722656 4.988281 -6.570312 5.59375 -6.40625 C 6.738281 -6.09375 7.585938 -5.679688 8.140625 -5.171875 C 8.703125 -4.671875 8.984375 -3.96875 8.984375 -3.0625 C 8.984375 -2.007812 8.554688 -1.1875 7.703125 -0.59375 C 6.847656 0 5.785156 0.296875 4.515625 0.296875 C 3.648438 0.296875 2.859375 0.164062 2.140625 -0.09375 C 1.429688 -0.363281 0.816406 -0.734375 0.296875 -1.203125 L 1.578125 -2.640625 C 2.492188 -1.941406 3.453125 -1.59375 4.453125 -1.59375 C 5.023438 -1.59375 5.484375 -1.707031 5.828125 -1.9375 C 6.171875 -2.164062 6.34375 -2.476562 6.34375 -2.875 C 6.34375 -3.1875 6.273438 -3.429688 6.140625 -3.609375 C 6.015625 -3.785156 5.789062 -3.941406 5.46875 -4.078125 C 5.144531 -4.222656 4.632812 -4.394531 3.9375 -4.59375 C 2.851562 -4.894531 2.054688 -5.304688 1.546875 -5.828125 C 1.046875 -6.359375 0.796875 -7.015625 0.796875 -7.796875 C 0.796875 -8.390625 0.960938 -8.914062 1.296875 -9.375 C 1.640625 -9.84375 2.125 -10.207031 2.75 -10.46875 C 3.375 -10.738281 4.082031 -10.875 4.875 -10.875 Z M 4.875 -10.875 "/></g></g></g><g fill="#000000" fill-opacity="1"><g transform="translate(85.248034, 274.044385)"><g><path d="M 7.59375 -0.5 C 7.226562 -0.226562 6.8125 -0.03125 6.34375 0.09375 C 5.882812 0.226562 5.414062 0.296875 4.9375 0.296875 C 3.894531 0.285156 3.101562 -0.00390625 2.5625 -0.578125 C 2.03125 -1.160156 1.765625 -2.019531 1.765625 -3.15625 L 1.765625 -8.734375 L 0.09375 -8.734375 L 0.09375 -10.578125 L 1.765625 -10.578125 L 1.765625 -12.921875 L 4.3125 -13.21875 L 4.3125 -10.578125 L 6.78125 -10.578125 L 6.515625 -8.734375 L 4.3125 -8.734375 L 4.3125 -3.21875 C 4.3125 -2.695312 4.398438 -2.320312 4.578125 -2.09375 C 4.765625 -1.875 5.050781 -1.765625 5.4375 -1.765625 C 5.820312 -1.765625 6.242188 -1.890625 6.703125 -2.140625 Z M 7.59375 -0.5 "/></g></g></g><g fill="#000000" fill-opacity="1"><g transform="translate(92.745081, 274.044385)"><g><path d="M 10.21875 -5.546875 C 10.21875 -5.410156 10.195312 -5.0625 10.15625 -4.5 L 3.515625 -4.5 C 3.597656 -3.46875 3.863281 -2.734375 4.3125 -2.296875 C 4.769531 -1.859375 5.375 -1.640625 6.125 -1.640625 C 6.582031 -1.640625 7.019531 -1.710938 7.4375 -1.859375 C 7.851562 -2.015625 8.296875 -2.253906 8.765625 -2.578125 L 9.8125 -1.125 C 8.644531 -0.175781 7.34375 0.296875 5.90625 0.296875 C 4.289062 0.296875 3.046875 -0.191406 2.171875 -1.171875 C 1.296875 -2.160156 0.859375 -3.507812 0.859375 -5.21875 C 0.859375 -6.300781 1.046875 -7.269531 1.421875 -8.125 C 1.796875 -8.988281 2.332031 -9.660156 3.03125 -10.140625 C 3.738281 -10.628906 4.582031 -10.875 5.5625 -10.875 C 7.039062 -10.875 8.1875 -10.40625 9 -9.46875 C 9.8125 -8.53125 10.21875 -7.222656 10.21875 -5.546875 Z M 7.6875 -6.28125 C 7.6875 -8.132812 7 -9.0625 5.625 -9.0625 C 5 -9.0625 4.507812 -8.832031 4.15625 -8.375 C 3.800781 -7.914062 3.585938 -7.175781 3.515625 -6.15625 L 7.6875 -6.15625 Z M 7.6875 -6.28125 "/></g></g></g><g fill="#000000" fill-opacity="1"><g transform="translate(103.720754, 274.044385)"><g><path d="M 12.765625 -10.875 C 13.617188 -10.875 14.296875 -10.582031 14.796875 -10 C 15.304688 -9.425781 15.5625 -8.644531 15.5625 -7.65625 L 15.5625 0 L 13 0 L 13 -7.265625 C 13 -8.390625 12.613281 -8.953125 11.84375 -8.953125 C 11.425781 -8.953125 11.066406 -8.820312 10.765625 -8.5625 C 10.460938 -8.3125 10.15625 -7.910156 9.84375 -7.359375 L 9.84375 0 L 7.28125 0 L 7.28125 -7.265625 C 7.28125 -8.390625 6.894531 -8.953125 6.125 -8.953125 C 5.695312 -8.953125 5.332031 -8.820312 5.03125 -8.5625 C 4.726562 -8.3125 4.414062 -7.910156 4.09375 -7.359375 L 4.09375 0 L 1.546875 0 L 1.546875 -10.578125 L 3.765625 -10.578125 L 3.953125 -9.203125 C 4.753906 -10.316406 5.773438 -10.875 7.015625 -10.875 C 7.628906 -10.875 8.160156 -10.71875 8.609375 -10.40625 C 9.054688 -10.09375 9.378906 -9.65625 9.578125 -9.09375 C 10.003906 -9.664062 10.472656 -10.101562 10.984375 -10.40625 C 11.503906 -10.71875 12.097656 -10.875 12.765625 -10.875 Z M 12.765625 -10.875 "/></g></g></g><g fill="#000000" fill-opacity="1"><g transform="translate(120.714051, 274.044385)"><g><path d="M 9.359375 -2.796875 C 9.359375 -2.390625 9.421875 -2.085938 9.546875 -1.890625 C 9.671875 -1.691406 9.875 -1.539062 10.15625 -1.4375 L 9.625 0.265625 C 9.019531 0.210938 8.523438 0.0664062 8.140625 -0.171875 C 7.765625 -0.421875 7.476562 -0.789062 7.28125 -1.28125 C 6.914062 -0.75 6.460938 -0.351562 5.921875 -0.09375 C 5.390625 0.164062 4.789062 0.296875 4.125 0.296875 C 3.070312 0.296875 2.238281 0 1.625 -0.59375 C 1.007812 -1.195312 0.703125 -1.984375 0.703125 -2.953125 C 0.703125 -4.109375 1.117188 -4.988281 1.953125 -5.59375 C 2.785156 -6.195312 3.972656 -6.5 5.515625 -6.5 L 6.84375 -6.5 L 6.84375 -7.09375 C 6.84375 -7.78125 6.6875 -8.257812 6.375 -8.53125 C 6.0625 -8.800781 5.554688 -8.9375 4.859375 -8.9375 C 4.085938 -8.9375 3.15625 -8.75 2.0625 -8.375 L 1.453125 -10.125 C 2.773438 -10.625 4.054688 -10.875 5.296875 -10.875 C 8.003906 -10.875 9.359375 -9.660156 9.359375 -7.234375 Z M 4.796875 -1.5625 C 5.660156 -1.5625 6.34375 -1.992188 6.84375 -2.859375 L 6.84375 -5 L 5.78125 -5 C 4.125 -5 3.296875 -4.382812 3.296875 -3.15625 C 3.296875 -2.65625 3.421875 -2.265625 3.671875 -1.984375 C 3.929688 -1.703125 4.304688 -1.5625 4.796875 -1.5625 Z M 4.796875 -1.5625 "/></g></g></g><g fill="#000000" fill-opacity="1"><g transform="translate(131.629745, 274.044385)"><g/></g></g><g fill="#000000" fill-opacity="1"><g transform="translate(136.627769, 274.044385)"><g><path d="M 10.4375 -14.8125 L 10.4375 0 L 8.1875 0 L 8 -1.34375 C 7.664062 -0.832031 7.238281 -0.429688 6.71875 -0.140625 C 6.207031 0.148438 5.628906 0.296875 4.984375 0.296875 C 3.691406 0.296875 2.695312 -0.203125 2 -1.203125 C 1.300781 -2.203125 0.953125 -3.5625 0.953125 -5.28125 C 0.953125 -6.363281 1.125 -7.328125 1.46875 -8.171875 C 1.820312 -9.015625 2.320312 -9.675781 2.96875 -10.15625 C 3.613281 -10.632812 4.363281 -10.875 5.21875 -10.875 C 6.226562 -10.875 7.113281 -10.492188 7.875 -9.734375 L 7.875 -15.09375 Z M 5.703125 -1.640625 C 6.148438 -1.640625 6.546875 -1.75 6.890625 -1.96875 C 7.242188 -2.1875 7.570312 -2.53125 7.875 -3 L 7.875 -7.84375 C 7.570312 -8.21875 7.265625 -8.492188 6.953125 -8.671875 C 6.640625 -8.859375 6.273438 -8.953125 5.859375 -8.953125 C 5.179688 -8.953125 4.644531 -8.648438 4.25 -8.046875 C 3.851562 -7.441406 3.65625 -6.523438 3.65625 -5.296875 C 3.65625 -3.992188 3.828125 -3.054688 4.171875 -2.484375 C 4.523438 -1.921875 5.035156 -1.640625 5.703125 -1.640625 Z M 5.703125 -1.640625 "/></g></g></g><g fill="#000000" fill-opacity="1"><g transform="translate(148.603049, 274.044385)"><g><path d="M 10.21875 -5.546875 C 10.21875 -5.410156 10.195312 -5.0625 10.15625 -4.5 L 3.515625 -4.5 C 3.597656 -3.46875 3.863281 -2.734375 4.3125 -2.296875 C 4.769531 -1.859375 5.375 -1.640625 6.125 -1.640625 C 6.582031 -1.640625 7.019531 -1.710938 7.4375 -1.859375 C 7.851562 -2.015625 8.296875 -2.253906 8.765625 -2.578125 L 9.8125 -1.125 C 8.644531 -0.175781 7.34375 0.296875 5.90625 0.296875 C 4.289062 0.296875 3.046875 -0.191406 2.171875 -1.171875 C 1.296875 -2.160156 0.859375 -3.507812 0.859375 -5.21875 C 0.859375 -6.300781 1.046875 -7.269531 1.421875 -8.125 C 1.796875 -8.988281 2.332031 -9.660156 3.03125 -10.140625 C 3.738281 -10.628906 4.582031 -10.875 5.5625 -10.875 C 7.039062 -10.875 8.1875 -10.40625 9 -9.46875 C 9.8125 -8.53125 10.21875 -7.222656 10.21875 -5.546875 Z M 7.6875 -6.28125 C 7.6875 -8.132812 7 -9.0625 5.625 -9.0625 C 5 -9.0625 4.507812 -8.832031 4.15625 -8.375 C 3.800781 -7.914062 3.585938 -7.175781 3.515625 -6.15625 L 7.6875 -6.15625 Z M 7.6875 -6.28125 "/></g></g></g><g fill="#000000" fill-opacity="1"><g transform="translate(159.578722, 274.044385)"><g/></g></g><g fill="#000000" fill-opacity="1"><g transform="translate(164.576745, 274.044385)"><g><path d="M 10.046875 -10.578125 L 6.59375 0 L 3.546875 0 L 0.046875 -10.578125 L 2.8125 -10.578125 L 5.078125 -2.0625 L 7.40625 -10.578125 Z M 10.046875 -10.578125 "/></g></g></g><g fill="#000000" fill-opacity="1"><g transform="translate(174.652775, 274.044385)"><g><path d="M 10.21875 -5.546875 C 10.21875 -5.410156 10.195312 -5.0625 10.15625 -4.5 L 3.515625 -4.5 C 3.597656 -3.46875 3.863281 -2.734375 4.3125 -2.296875 C 4.769531 -1.859375 5.375 -1.640625 6.125 -1.640625 C 6.582031 -1.640625 7.019531 -1.710938 7.4375 -1.859375 C 7.851562 -2.015625 8.296875 -2.253906 8.765625 -2.578125 L 9.8125 -1.125 C 8.644531 -0.175781 7.34375 0.296875 5.90625 0.296875 C 4.289062 0.296875 3.046875 -0.191406 2.171875 -1.171875 C 1.296875 -2.160156 0.859375 -3.507812 0.859375 -5.21875 C 0.859375 -6.300781 1.046875 -7.269531 1.421875 -8.125 C 1.796875 -8.988281 2.332031 -9.660156 3.03125 -10.140625 C 3.738281 -10.628906 4.582031 -10.875 5.5625 -10.875 C 7.039062 -10.875 8.1875 -10.40625 9 -9.46875 C 9.8125 -8.53125 10.21875 -7.222656 10.21875 -5.546875 Z M 7.6875 -6.28125 C 7.6875 -8.132812 7 -9.0625 5.625 -9.0625 C 5 -9.0625 4.507812 -8.832031 4.15625 -8.375 C 3.800781 -7.914062 3.585938 -7.175781 3.515625 -6.15625 L 7.6875 -6.15625 Z M 7.6875 -6.28125 "/></g></g></g><g fill="#000000" fill-opacity="1"><g transform="translate(185.628448, 274.044385)"><g><path d="M 7.1875 -10.875 C 8.125 -10.875 8.859375 -10.59375 9.390625 -10.03125 C 9.921875 -9.46875 10.1875 -8.675781 10.1875 -7.65625 L 10.1875 0 L 7.625 0 L 7.625 -7.265625 C 7.625 -7.890625 7.507812 -8.328125 7.28125 -8.578125 C 7.0625 -8.828125 6.738281 -8.953125 6.3125 -8.953125 C 5.875 -8.953125 5.476562 -8.816406 5.125 -8.546875 C 4.769531 -8.273438 4.425781 -7.878906 4.09375 -7.359375 L 4.09375 0 L 1.546875 0 L 1.546875 -10.578125 L 3.765625 -10.578125 L 3.953125 -9.203125 C 4.828125 -10.316406 5.90625 -10.875 7.1875 -10.875 Z M 7.1875 -10.875 "/></g></g></g><g fill="#000000" fill-opacity="1"><g transform="translate(197.243869, 274.044385)"><g><path d="M 7.59375 -0.5 C 7.226562 -0.226562 6.8125 -0.03125 6.34375 0.09375 C 5.882812 0.226562 5.414062 0.296875 4.9375 0.296875 C 3.894531 0.285156 3.101562 -0.00390625 2.5625 -0.578125 C 2.03125 -1.160156 1.765625 -2.019531 1.765625 -3.15625 L 1.765625 -8.734375 L 0.09375 -8.734375 L 0.09375 -10.578125 L 1.765625 -10.578125 L 1.765625 -12.921875 L 4.3125 -13.21875 L 4.3125 -10.578125 L 6.78125 -10.578125 L 6.515625 -8.734375 L 4.3125 -8.734375 L 4.3125 -3.21875 C 4.3125 -2.695312 4.398438 -2.320312 4.578125 -2.09375 C 4.765625 -1.875 5.050781 -1.765625 5.4375 -1.765625 C 5.820312 -1.765625 6.242188 -1.890625 6.703125 -2.140625 Z M 7.59375 -0.5 "/></g></g></g><g fill="#000000" fill-opacity="1"><g transform="translate(204.740916, 274.044385)"><g><path d="M 9.359375 -2.796875 C 9.359375 -2.390625 9.421875 -2.085938 9.546875 -1.890625 C 9.671875 -1.691406 9.875 -1.539062 10.15625 -1.4375 L 9.625 0.265625 C 9.019531 0.210938 8.523438 0.0664062 8.140625 -0.171875 C 7.765625 -0.421875 7.476562 -0.789062 7.28125 -1.28125 C 6.914062 -0.75 6.460938 -0.351562 5.921875 -0.09375 C 5.390625 0.164062 4.789062 0.296875 4.125 0.296875 C 3.070312 0.296875 2.238281 0 1.625 -0.59375 C 1.007812 -1.195312 0.703125 -1.984375 0.703125 -2.953125 C 0.703125 -4.109375 1.117188 -4.988281 1.953125 -5.59375 C 2.785156 -6.195312 3.972656 -6.5 5.515625 -6.5 L 6.84375 -6.5 L 6.84375 -7.09375 C 6.84375 -7.78125 6.6875 -8.257812 6.375 -8.53125 C 6.0625 -8.800781 5.554688 -8.9375 4.859375 -8.9375 C 4.085938 -8.9375 3.15625 -8.75 2.0625 -8.375 L 1.453125 -10.125 C 2.773438 -10.625 4.054688 -10.875 5.296875 -10.875 C 8.003906 -10.875 9.359375 -9.660156 9.359375 -7.234375 Z M 4.796875 -1.5625 C 5.660156 -1.5625 6.34375 -1.992188 6.84375 -2.859375 L 6.84375 -5 L 5.78125 -5 C 4.125 -5 3.296875 -4.382812 3.296875 -3.15625 C 3.296875 -2.65625 3.421875 -2.265625 3.671875 -1.984375 C 3.929688 -1.703125 4.304688 -1.5625 4.796875 -1.5625 Z M 4.796875 -1.5625 "/></g></g></g><g fill="#000000" fill-opacity="1"><g transform="translate(215.65661, 274.044385)"><g/></g></g><g fill="#000000" fill-opacity="1"><g transform="translate(220.654634, 274.044385)"><g><path d="M 10.21875 -5.546875 C 10.21875 -5.410156 10.195312 -5.0625 10.15625 -4.5 L 3.515625 -4.5 C 3.597656 -3.46875 3.863281 -2.734375 4.3125 -2.296875 C 4.769531 -1.859375 5.375 -1.640625 6.125 -1.640625 C 6.582031 -1.640625 7.019531 -1.710938 7.4375 -1.859375 C 7.851562 -2.015625 8.296875 -2.253906 8.765625 -2.578125 L 9.8125 -1.125 C 8.644531 -0.175781 7.34375 0.296875 5.90625 0.296875 C 4.289062 0.296875 3.046875 -0.191406 2.171875 -1.171875 C 1.296875 -2.160156 0.859375 -3.507812 0.859375 -5.21875 C 0.859375 -6.300781 1.046875 -7.269531 1.421875 -8.125 C 1.796875 -8.988281 2.332031 -9.660156 3.03125 -10.140625 C 3.738281 -10.628906 4.582031 -10.875 5.5625 -10.875 C 7.039062 -10.875 8.1875 -10.40625 9 -9.46875 C 9.8125 -8.53125 10.21875 -7.222656 10.21875 -5.546875 Z M 7.6875 -6.28125 C 7.6875 -8.132812 7 -9.0625 5.625 -9.0625 C 5 -9.0625 4.507812 -8.832031 4.15625 -8.375 C 3.800781 -7.914062 3.585938 -7.175781 3.515625 -6.15625 L 7.6875 -6.15625 Z M 7.6875 -6.28125 "/></g></g></g><g fill="#000000" fill-opacity="1"><g transform="translate(231.630307, 274.044385)"><g><path d="M 7.1875 -10.875 C 8.125 -10.875 8.859375 -10.59375 9.390625 -10.03125 C 9.921875 -9.46875 10.1875 -8.675781 10.1875 -7.65625 L 10.1875 0 L 7.625 0 L 7.625 -7.265625 C 7.625 -7.890625 7.507812 -8.328125 7.28125 -8.578125 C 7.0625 -8.828125 6.738281 -8.953125 6.3125 -8.953125 C 5.875 -8.953125 5.476562 -8.816406 5.125 -8.546875 C 4.769531 -8.273438 4.425781 -7.878906 4.09375 -7.359375 L 4.09375 0 L 1.546875 0 L 1.546875 -10.578125 L 3.765625 -10.578125 L 3.953125 -9.203125 C 4.828125 -10.316406 5.90625 -10.875 7.1875 -10.875 Z M 7.1875 -10.875 "/></g></g></g><g fill="#000000" fill-opacity="1"><g transform="translate(243.245728, 274.044385)"><g/></g></g><g fill="#000000" fill-opacity="1"><g transform="translate(248.243751, 274.044385)"><g><path d="M 4.046875 0.296875 C 3.222656 0.296875 2.582031 0.0625 2.125 -0.40625 C 1.664062 -0.882812 1.4375 -1.554688 1.4375 -2.421875 L 1.4375 -14.8125 L 4 -15.09375 L 4 -2.5 C 4 -2.007812 4.195312 -1.765625 4.59375 -1.765625 C 4.800781 -1.765625 5.003906 -1.796875 5.203125 -1.859375 L 5.734375 -0.0625 C 5.203125 0.175781 4.640625 0.296875 4.046875 0.296875 Z M 4.046875 0.296875 "/></g></g></g><g fill="#000000" fill-opacity="1"><g transform="translate(254.141429, 274.044385)"><g><path d="M 9.359375 -2.796875 C 9.359375 -2.390625 9.421875 -2.085938 9.546875 -1.890625 C 9.671875 -1.691406 9.875 -1.539062 10.15625 -1.4375 L 9.625 0.265625 C 9.019531 0.210938 8.523438 0.0664062 8.140625 -0.171875 C 7.765625 -0.421875 7.476562 -0.789062 7.28125 -1.28125 C 6.914062 -0.75 6.460938 -0.351562 5.921875 -0.09375 C 5.390625 0.164062 4.789062 0.296875 4.125 0.296875 C 3.070312 0.296875 2.238281 0 1.625 -0.59375 C 1.007812 -1.195312 0.703125 -1.984375 0.703125 -2.953125 C 0.703125 -4.109375 1.117188 -4.988281 1.953125 -5.59375 C 2.785156 -6.195312 3.972656 -6.5 5.515625 -6.5 L 6.84375 -6.5 L 6.84375 -7.09375 C 6.84375 -7.78125 6.6875 -8.257812 6.375 -8.53125 C 6.0625 -8.800781 5.554688 -8.9375 4.859375 -8.9375 C 4.085938 -8.9375 3.15625 -8.75 2.0625 -8.375 L 1.453125 -10.125 C 2.773438 -10.625 4.054688 -10.875 5.296875 -10.875 C 8.003906 -10.875 9.359375 -9.660156 9.359375 -7.234375 Z M 4.796875 -1.5625 C 5.660156 -1.5625 6.34375 -1.992188 6.84375 -2.859375 L 6.84375 -5 L 5.78125 -5 C 4.125 -5 3.296875 -4.382812 3.296875 -3.15625 C 3.296875 -2.65625 3.421875 -2.265625 3.671875 -1.984375 C 3.929688 -1.703125 4.304688 -1.5625 4.796875 -1.5625 Z M 4.796875 -1.5625 "/></g></g></g><g fill="#000000" fill-opacity="1"><g transform="translate(265.057124, 274.044385)"><g/></g></g><g fill="#000000" fill-opacity="1"><g transform="translate(270.055147, 274.044385)"><g><path d="M 7.1875 -10.875 C 8.125 -10.875 8.859375 -10.59375 9.390625 -10.03125 C 9.921875 -9.46875 10.1875 -8.675781 10.1875 -7.65625 L 10.1875 0 L 7.625 0 L 7.625 -7.265625 C 7.625 -7.890625 7.507812 -8.328125 7.28125 -8.578125 C 7.0625 -8.828125 6.738281 -8.953125 6.3125 -8.953125 C 5.875 -8.953125 5.476562 -8.816406 5.125 -8.546875 C 4.769531 -8.273438 4.425781 -7.878906 4.09375 -7.359375 L 4.09375 0 L 1.546875 0 L 1.546875 -10.578125 L 3.765625 -10.578125 L 3.953125 -9.203125 C 4.828125 -10.316406 5.90625 -10.875 7.1875 -10.875 Z M 7.1875 -10.875 "/></g></g></g><g fill="#000000" fill-opacity="1"><g transform="translate(281.670579, 274.044385)"><g><path d="M 10 0 L 7.78125 0 L 7.640625 -1.484375 C 7.253906 -0.878906 6.796875 -0.429688 6.265625 -0.140625 C 5.742188 0.148438 5.125 0.296875 4.40625 0.296875 C 3.457031 0.296875 2.722656 0.0078125 2.203125 -0.5625 C 1.691406 -1.144531 1.4375 -1.953125 1.4375 -2.984375 L 1.4375 -10.578125 L 4 -10.578125 L 4 -3.296875 C 4 -2.703125 4.101562 -2.273438 4.3125 -2.015625 C 4.519531 -1.765625 4.847656 -1.640625 5.296875 -1.640625 C 6.109375 -1.640625 6.820312 -2.140625 7.4375 -3.140625 L 7.4375 -10.578125 L 10 -10.578125 Z M 10 0 "/></g></g></g><g fill="#000000" fill-opacity="1"><g transform="translate(293.20604, 274.044385)"><g><path d="M 7.015625 -10.875 C 8.242188 -10.875 9.203125 -10.382812 9.890625 -9.40625 C 10.585938 -8.425781 10.9375 -7.054688 10.9375 -5.296875 C 10.9375 -4.203125 10.765625 -3.234375 10.421875 -2.390625 C 10.085938 -1.546875 9.609375 -0.882812 8.984375 -0.40625 C 8.359375 0.0625 7.617188 0.296875 6.765625 0.296875 C 6.191406 0.296875 5.664062 0.175781 5.1875 -0.0625 C 4.71875 -0.300781 4.304688 -0.640625 3.953125 -1.078125 L 3.796875 0 L 1.546875 0 L 1.546875 -14.8125 L 4.09375 -15.09375 L 4.09375 -9.375 C 4.445312 -9.851562 4.875 -10.222656 5.375 -10.484375 C 5.875 -10.742188 6.421875 -10.875 7.015625 -10.875 Z M 6.0625 -1.625 C 6.75 -1.625 7.285156 -1.921875 7.671875 -2.515625 C 8.066406 -3.109375 8.265625 -4.035156 8.265625 -5.296875 C 8.265625 -6.628906 8.082031 -7.570312 7.71875 -8.125 C 7.363281 -8.675781 6.859375 -8.953125 6.203125 -8.953125 C 5.390625 -8.953125 4.6875 -8.472656 4.09375 -7.515625 L 4.09375 -2.84375 C 4.320312 -2.457031 4.601562 -2.15625 4.9375 -1.9375 C 5.28125 -1.726562 5.65625 -1.625 6.0625 -1.625 Z M 6.0625 -1.625 "/></g></g></g><g fill="#000000" fill-opacity="1"><g transform="translate(305.121353, 274.044385)"><g><path d="M 10.21875 -5.546875 C 10.21875 -5.410156 10.195312 -5.0625 10.15625 -4.5 L 3.515625 -4.5 C 3.597656 -3.46875 3.863281 -2.734375 4.3125 -2.296875 C 4.769531 -1.859375 5.375 -1.640625 6.125 -1.640625 C 6.582031 -1.640625 7.019531 -1.710938 7.4375 -1.859375 C 7.851562 -2.015625 8.296875 -2.253906 8.765625 -2.578125 L 9.8125 -1.125 C 8.644531 -0.175781 7.34375 0.296875 5.90625 0.296875 C 4.289062 0.296875 3.046875 -0.191406 2.171875 -1.171875 C 1.296875 -2.160156 0.859375 -3.507812 0.859375 -5.21875 C 0.859375 -6.300781 1.046875 -7.269531 1.421875 -8.125 C 1.796875 -8.988281 2.332031 -9.660156 3.03125 -10.140625 C 3.738281 -10.628906 4.582031 -10.875 5.5625 -10.875 C 7.039062 -10.875 8.1875 -10.40625 9 -9.46875 C 9.8125 -8.53125 10.21875 -7.222656 10.21875 -5.546875 Z M 7.6875 -6.28125 C 7.6875 -8.132812 7 -9.0625 5.625 -9.0625 C 5 -9.0625 4.507812 -8.832031 4.15625 -8.375 C 3.800781 -7.914062 3.585938 -7.175781 3.515625 -6.15625 L 7.6875 -6.15625 Z M 7.6875 -6.28125 "/></g></g></g></svg>